<svg xmlns="http://www.w3.org/2000/svg" width="335.1" height="107.957" viewBox="0 0 335.1 107.957">
  <g id="Group_3026" data-name="Group 3026" transform="translate(-69.854 -39)">
    <ellipse id="Ellipse_266" data-name="Ellipse 266" cx="29" cy="25.5" rx="29" ry="25.5" transform="translate(341 46)" fill="#fff"/>
    <g id="Group_2853" data-name="Group 2853" transform="translate(69.853 39)">
      <g id="Group_1" data-name="Group 1" transform="translate(267.875)">
        <path id="Path_2" data-name="Path 2" d="M2000.755,641.037a3.273,3.273,0,0,0-3.149,1.957,5.187,5.187,0,0,0-.435,2.027h7.167a5.17,5.17,0,0,0-.435-2.027A3.27,3.27,0,0,0,2000.755,641.037Z" transform="translate(-1952.097 -612.192)" fill="#d63231"/>
        <path id="Path_3" data-name="Path 3" d="M1823.226,516.508a33.61,33.61,0,1,0-56.75,28.109l-6.069,14.416,20.1-6.274a33.628,33.628,0,0,0,42.719-36.251Zm-28.865,14.36h-4.706v-11.4c0-2.571-1.628-3.44-3.112-3.44a3.04,3.04,0,0,0-3.15,3.331v11.512h-4.707v-11.4c0-2.571-1.628-3.44-3.112-3.44s-3.15.87-3.15,3.44v11.4h-4.705V512.007h4.6v1.738a6.6,6.6,0,0,1,4.705-1.954,5.837,5.837,0,0,1,5,2.391,7.194,7.194,0,0,1,5.648-2.391,6.58,6.58,0,0,1,4.633,1.665,7.107,7.107,0,0,1,2.063,5.358Zm18.752-7.965h-11.8a3.894,3.894,0,0,0,4.126,4.2,5.222,5.222,0,0,0,4.272-1.772l2.859,2.787a8.98,8.98,0,0,1-7.168,2.969c-4.452,0-8.724-2.027-8.724-9.665,0-6.155,3.332-9.63,8.217-9.63,5.249,0,8.216,3.837,8.216,9.014Z" transform="translate(-1756.238 -486.854)" fill="#d63231"/>
      </g>
      <g id="Group_2" data-name="Group 2" transform="translate(0 28.272)">
        <path id="Path_4" data-name="Path 4" d="M366.116,718.909l-15.342-31.344H339.737v31.344H324.4V640.326h30.793c16,0,25.5,10.927,25.5,24.061a21.158,21.158,0,0,1-14.347,20.639l17.548,33.884Zm-11.92-64.9H339.737v20.748H354.2c6.732,0,11.146-4.3,11.146-10.374S360.928,654.012,354.2,654.012Z" transform="translate(-324.396 -639.885)" fill="#fff"/>
        <path id="Path_5" data-name="Path 5" d="M640.817,783.344c0,7.4,4.525,12.8,12.581,12.8,6.292,0,9.382-1.768,13.024-5.409l8.719,8.5c-5.851,5.852-11.478,9.052-21.854,9.052-13.574,0-26.6-6.181-26.6-29.469,0-18.761,10.155-29.359,25.054-29.359,16,0,25.053,11.7,25.053,27.484v6.4Zm20.528-16a10.713,10.713,0,0,0-19.2,0,15.8,15.8,0,0,0-1.325,6.181h21.852A15.83,15.83,0,0,0,661.345,767.342Z" transform="translate(-570.135 -728.602)" fill="#fff"/>
        <path id="Path_6" data-name="Path 6" d="M942.348,808.288c-11.479,0-25.715-6.181-25.715-29.469s14.236-29.359,25.715-29.359c7.947,0,13.907,2.43,18.984,7.727L951.62,766.9c-2.981-3.2-5.518-4.524-9.272-4.524a9.953,9.953,0,0,0-8.167,3.753c-2.207,2.759-3.2,6.621-3.2,12.692s.995,10.043,3.2,12.8a9.946,9.946,0,0,0,8.167,3.752c3.754,0,6.292-1.325,9.272-4.524l9.712,9.6C956.255,805.748,950.295,808.288,942.348,808.288Z" transform="translate(-805.835 -728.602)" fill="#fff"/>
        <path id="Path_7" data-name="Path 7" d="M1175.223,649.669v-11.7h14.68v11.7Zm.221,67.325v-57.5h14.35v57.5Z" transform="translate(-1016.046 -637.97)" fill="#fff"/>
        <path id="Path_8" data-name="Path 8" d="M1302.666,743.85c-11.7,0-16.666-8.278-16.666-16.445V698.93h-6.07V688H1286v-17h14.347v17H1310.5V698.93h-10.155v27.593c0,3.31,1.547,5.187,4.968,5.187h5.188v12.14Z" transform="translate(-1101.166 -664.826)" fill="#fff"/>
        <path id="Path_9" data-name="Path 9" d="M1470.937,786.386c2.177,7.065,8.093,10.9,15.793,8.531,6.013-1.852,8.448-4.45,10.855-9l10.834,5.555c-3.867,7.312-8.306,12.028-18.222,15.081-12.973,4-27.238,1.922-34.094-20.333-5.521-17.93,1.064-31.047,15.3-35.432,15.294-4.711,27.386,3.806,32.032,18.889l1.884,6.12Zm14.91-21.339a10.715,10.715,0,0,0-18.354,5.652,15.852,15.852,0,0,0,.554,6.3l20.885-6.43A15.868,15.868,0,0,0,1485.847,765.047Z" transform="translate(-1242.798 -728.624)" fill="#fff"/>
      </g>
      <g id="Group_3" data-name="Group 3" transform="translate(271.973 96.366)">
        <path id="Path_10" data-name="Path 10" d="M1778.145,1007.48a5.463,5.463,0,0,1,1.533-3.932,5.127,5.127,0,0,1,7.441,0,5.823,5.823,0,0,1,0,7.878,5.107,5.107,0,0,1-7.438,0A5.5,5.5,0,0,1,1778.145,1007.48Zm.9,0a4.636,4.636,0,0,0,1.27,3.311,4.213,4.213,0,0,0,6.171,0,4.91,4.91,0,0,0,0-6.6,4.236,4.236,0,0,0-6.175,0A4.59,4.59,0,0,0,1779.041,1007.476Zm3.287.56v2.5h-1.1v-6.293h2.073a2.861,2.861,0,0,1,1.766.485,1.669,1.669,0,0,1,.642,1.418,1.369,1.369,0,0,1-.246.807,1.816,1.816,0,0,1-.71.578,1.328,1.328,0,0,1,.707.585,1.925,1.925,0,0,1,.219.948v.414a5.336,5.336,0,0,0,.025.544,1.243,1.243,0,0,0,.1.4v.118h-1.133a1.339,1.339,0,0,1-.082-.455c-.01-.2-.015-.4-.015-.611v-.4a1.08,1.08,0,0,0-.249-.785,1.115,1.115,0,0,0-.818-.251Zm0-.963h1.125a1.441,1.441,0,0,0,.818-.241.742.742,0,0,0,.337-.648.888.888,0,0,0-.292-.759,1.762,1.762,0,0,0-1.018-.218h-.97Z" transform="translate(-1778.145 -1001.949)" fill="#fff"/>
      </g>
    </g>
  </g>
</svg>
